Coordinates
version=1
nRows=38
nColumns=38
inDegrees=no

Units are S.I. units (second, meters, Newtons, ...)
If the header above contains a line with 'inDegrees', this indicates whether rotational values are in degrees (yes) or radians (no).

endheader
time	pelvis_tilt	pelvis_list	pelvis_rotation	pelvis_tx	pelvis_ty	pelvis_tz	hip_flexion_r	hip_adduction_r	hip_rotation_r	knee_angle_r	ankle_angle_r	subtalar_angle_r	mtp_angle_r	hip_flexion_l	hip_adduction_l	hip_rotation_l	knee_angle_l	ankle_angle_l	subtalar_angle_l	mtp_angle_l	lumbar_extension	lumbar_bending	lumbar_rotation	arm_flex_r	arm_add_r	arm_rot_r	elbow_flex_r	pro_sup_r	wrist_flex_r	wrist_dev_r	arm_flex_l	arm_add_l	arm_rot_l	elbow_flex_l	pro_sup_l	wrist_flex_l	wrist_dev_l
53.67	-0.0524125	1.1818	1.73018	0.735016	0.261785	0.878122	1.19057	-0.0962115	-0.0550759	1.23821	-0.311998	0	0	1.15351	-0.17347	-0.0414665	1.2758	-0.258481	0	0	-0.640464	0.168146	0.0276358	1.09901	-0.374643	1.38613	0.321326	0.266981	0	0	-0.0150405	-0.0597978	-0.160446	0.602911	1.5708	0	0
53.68	-0.0552877	1.18287	1.73155	0.73478	0.261677	0.879084	1.18731	-0.0959271	-0.0538898	1.23433	-0.312321	0	0	1.14996	-0.173663	-0.043221	1.27282	-0.258974	0	0	-0.640371	0.166991	0.0320897	1.09813	-0.379651	1.3856	0.322399	0.270188	0	0	-0.0156544	-0.060134	-0.158511	0.609824	1.5708	0	0
53.69	-0.0581851	1.18411	1.73286	0.734521	0.26161	0.880134	1.1836	-0.0960262	-0.05369	1.23076	-0.312361	0	0	1.1459	-0.173938	-0.0452502	1.26949	-0.259366	0	0	-0.640416	0.165778	0.036753	1.09706	-0.384678	1.38409	0.323442	0.273143	0	0	-0.0163552	-0.0606874	-0.156717	0.617401	1.5708	0	0
53.7	-0.0606534	1.18551	1.73404	0.7342	0.261422	0.881112	1.18036	-0.0965478	-0.0539973	1.22821	-0.312009	0	0	1.14216	-0.173702	-0.0464462	1.26654	-0.259408	0	0	-0.638307	0.168483	0.0371475	1.11885	-0.375671	1.54213	0.303989	0.133552	0	0	-0.0167728	-0.0604629	-0.157408	0.619465	1.5708	0	0
53.71	-0.063446	1.1875	1.73505	0.733901	0.26144	0.882311	1.17587	-0.0965647	-0.0540597	1.2248	-0.312221	0	0	1.13687	-0.174213	-0.0486609	1.26284	-0.259652	0	0	-0.638718	0.167377	0.0423346	1.11787	-0.381159	1.54418	0.305515	0.131421	0	0	-0.0178286	-0.0614639	-0.155374	0.628638	1.5708	0	0
53.72	-0.0657272	1.18952	1.73568	0.733549	0.261489	0.883562	1.17122	-0.0964072	-0.0537938	1.22127	-0.312451	0	0	1.13159	-0.174593	-0.0505944	1.25913	-0.259839	0	0	-0.638826	0.166617	0.0474069	1.11666	-0.386473	1.54689	0.306688	0.128617	0	0	-0.019249	-0.0627674	-0.153092	0.638542	1.5708	0	0
53.73	-0.0680683	1.19182	1.73676	0.733141	0.26156	0.884903	1.16618	-0.0966187	-0.0534892	1.21761	-0.312969	0	0	1.12598	-0.174498	-0.0522821	1.25513	-0.260285	0	0	-0.639012	0.166248	0.0520908	1.11539	-0.391512	1.55097	0.307485	0.125519	0	0	-0.0206352	-0.0642245	-0.151211	0.648713	1.5708	0	0
53.74	-0.0706529	1.19424	1.73841	0.732716	0.26166	0.886318	1.16089	-0.0971341	-0.0532168	1.21349	-0.314128	0	0	1.12012	-0.17412	-0.0541049	1.25077	-0.261192	0	0	-0.639072	0.165898	0.0564255	1.11353	-0.39642	1.55502	0.308384	0.120785	0	0	-0.0219653	-0.0659895	-0.149692	0.659175	1.5708	0	0
53.75	-0.0740641	1.19663	1.74105	0.732309	0.261795	0.88779	1.15546	-0.0978876	-0.0527966	1.20907	-0.315534	0	0	1.1138	-0.173593	-0.0564297	1.24599	-0.262066	0	0	-0.638745	0.165222	0.0605638	1.11092	-0.401271	1.55964	0.308963	0.115299	0	0	-0.02287	-0.0680631	-0.148488	0.669168	1.5708	0	0
53.76	-0.0794716	1.19876	1.74582	0.731901	0.261934	0.88927	1.15016	-0.0994	-0.0521853	1.20525	-0.31598	0	0	1.10709	-0.172354	-0.059223	1.24084	-0.262715	0	0	-0.637696	0.163925	0.0642661	1.10728	-0.405845	1.56496	0.308685	0.10924	0	0	-0.0234244	-0.0704254	-0.147506	0.6786	1.5708	0	0
53.77	-0.0848254	1.19713	1.75093	0.73157	0.262236	0.890565	1.14836	-0.101454	-0.0513926	1.20081	-0.316682	0	0	1.10381	-0.170409	-0.0622715	1.23495	-0.263897	0	0	-0.634332	0.157153	0.0740431	1.05947	-0.423373	1.29788	0.325237	0.351698	0	0	-0.0224237	-0.0730456	-0.146462	0.691192	1.5708	0	0
53.78	-0.0931022	1.20478	1.75859	0.731244	0.262354	0.892563	1.13705	-0.103653	-0.0523124	1.19697	-0.316597	0	0	1.09098	-0.169526	-0.0658134	1.22973	-0.263527	0	0	-0.636952	0.160362	0.0714612	1.09734	-0.41532	1.5708	0.30932	0.0789354	0	0	-0.0232926	-0.0758377	-0.147259	0.696676	1.5708	0	0
53.79	-0.0999309	1.20785	1.76544	0.73091	0.262644	0.894237	1.13055	-0.106119	-0.0528265	1.19316	-0.316982	0	0	1.08254	-0.167766	-0.0689762	1.22362	-0.263555	0	0	-0.636015	0.158648	0.0746069	1.09016	-0.419151	1.5708	0.308553	0.0720745	0	0	-0.0226355	-0.0782726	-0.149329	0.704215	1.5708	0	0
53.8	-0.107137	1.2116	1.77238	0.730599	0.263005	0.895973	1.12289	-0.107547	-0.0519623	1.18875	-0.316999	0	0	1.07309	-0.16657	-0.0724464	1.21759	-0.263174	0	0	-0.635399	0.156788	0.0776515	1.08215	-0.422496	1.5708	0.30744	0.0652321	0	0	-0.0214595	-0.0806795	-0.151489	0.710162	1.5708	0	0
53.81	-0.113681	1.21571	1.77877	0.730265	0.263417	0.897756	1.11437	-0.108356	-0.0504546	1.18373	-0.316616	0	0	1.06318	-0.165394	-0.075501	1.21151	-0.262192	0	0	-0.634584	0.15537	0.0803705	1.07344	-0.425414	1.5708	0.306287	0.0592237	0	0	-0.0201613	-0.082882	-0.15461	0.715117	1.5708	0	0
53.82	-0.119041	1.22012	1.78415	0.729914	0.263918	0.899602	1.10544	-0.109395	-0.0502486	1.17872	-0.316025	0	0	1.05282	-0.164403	-0.0782351	1.20517	-0.260792	0	0	-0.633556	0.154551	0.0828174	1.06421	-0.428031	1.5708	0.305395	0.0536426	0	0	-0.0190532	-0.0846533	-0.159559	0.719723	1.5708	0	0
53.83	-0.123034	1.22449	1.78875	0.729503	0.264475	0.901469	1.09644	-0.110864	-0.0510796	1.17374	-0.315508	0	0	1.04251	-0.163288	-0.0805321	1.19856	-0.259628	0	0	-0.631907	0.154512	0.084613	1.0546	-0.430453	1.5708	0.305077	0.0486934	0	0	-0.0182031	-0.0861575	-0.165713	0.724005	1.5708	0	0
53.84	-0.125142	1.22786	1.79215	0.729072	0.265005	0.903235	1.0885	-0.112263	-0.0520373	1.16876	-0.315067	0	0	1.03351	-0.162283	-0.0828648	1.19164	-0.259309	0	0	-0.628571	0.155251	0.0853215	1.04463	-0.432237	1.5708	0.305211	0.0447583	0	0	-0.0178329	-0.0879577	-0.171723	0.727593	1.5708	0	0
53.85	-0.125526	1.22977	1.79477	0.728593	0.265444	0.904849	1.08224	-0.11376	-0.052834	1.16387	-0.314756	0	0	1.02639	-0.160947	-0.0851661	1.1843	-0.25927	0	0	-0.623038	0.156723	0.0845904	1.03427	-0.4334	1.5708	0.305785	0.0413862	0	0	-0.018254	-0.0897705	-0.178505	0.731101	1.5708	0	0
53.86	-0.12626	1.22981	1.79784	0.728048	0.265952	0.906326	1.07815	-0.115377	-0.0528285	1.15927	-0.315341	0	0	1.02065	-0.158418	-0.086822	1.17627	-0.259522	0	0	-0.615096	0.157	0.0848562	1.01418	-0.437772	1.51778	0.309313	0.0977659	0	0	-0.0182606	-0.092339	-0.182129	0.733682	1.5708	0	0
53.87	-0.130055	1.23258	1.80321	0.72751	0.266579	0.908129	1.07064	-0.116675	-0.0525181	1.15433	-0.314984	0	0	1.01072	-0.155986	-0.0893241	1.16747	-0.257988	0	0	-0.610023	0.157652	0.0830097	1.00385	-0.438498	1.51988	0.310554	0.0913105	0	0	-0.0191624	-0.0941673	-0.188757	0.736399	1.5708	0	0
53.88	-0.134599	1.23639	1.80924	0.727002	0.267293	0.910105	1.06121	-0.118028	-0.0524901	1.14864	-0.314073	0	0	0.999057	-0.153794	-0.0923257	1.158	-0.255742	0	0	-0.605975	0.158242	0.0809287	0.993565	-0.439057	1.52143	0.311846	0.0851053	0	0	-0.0200413	-0.0958753	-0.195518	0.738796	1.5708	0	0
53.89	-0.139291	1.24091	1.81557	0.726479	0.268051	0.912209	1.05004	-0.119843	-0.0530604	1.14213	-0.312171	0	0	0.986498	-0.151919	-0.095732	1.14837	-0.253357	0	0	-0.602644	0.159076	0.0785667	0.983414	-0.439434	1.52252	0.312912	0.07912	0	0	-0.0210082	-0.09748	-0.202215	0.741079	1.5708	0	0
53.9	-0.144508	1.24558	1.82218	0.725945	0.268805	0.914384	1.03927	-0.121466	-0.053719	1.13623	-0.310181	0	0	0.973696	-0.150231	-0.099607	1.13868	-0.251236	0	0	-0.599408	0.159804	0.0758063	0.973578	-0.439555	1.52371	0.314019	0.0738058	0	0	-0.0222649	-0.0990315	-0.208822	0.743347	1.5708	0	0
53.91	-0.149964	1.25025	1.82875	0.725428	0.269585	0.916626	1.02858	-0.122852	-0.0544153	1.13054	-0.30818	0	0	0.960731	-0.14884	-0.103817	1.12894	-0.249294	0	0	-0.596073	0.160448	0.0726601	0.963987	-0.439375	1.52547	0.315225	0.0697082	0	0	-0.0237098	-0.100662	-0.214833	0.745092	1.5708	0	0
53.92	-0.15633	1.25566	1.83585	0.724955	0.270429	0.919017	1.01654	-0.123789	-0.0548732	1.12385	-0.306119	0	0	0.946371	-0.14795	-0.108627	1.11864	-0.247071	0	0	-0.593352	0.160957	0.0692265	0.954801	-0.43869	1.52812	0.316006	0.0656691	0	0	-0.0252649	-0.102225	-0.220682	0.746385	1.5708	0	0
53.93	-0.166303	1.26492	1.84587	0.724584	0.271369	0.921865	0.999378	-0.123955	-0.0553377	1.11564	-0.302219	0	0	0.92704	-0.148229	-0.115124	1.10758	-0.243736	0	0	-0.594897	0.162034	0.0639293	0.953616	-0.433881	1.5708	0.313131	0.0206776	0	0	-0.0278056	-0.104052	-0.227036	0.748572	1.5708	0	0
53.94	-0.174211	1.27001	1.85429	0.724135	0.272234	0.924338	0.986924	-0.124277	-0.0546849	1.10724	-0.30099	0	0	0.912428	-0.146912	-0.120026	1.09603	-0.242636	0	0	-0.591456	0.162235	0.059843	0.944187	-0.432439	1.5708	0.312925	0.0200997	0	0	-0.0298144	-0.107413	-0.227179	0.749007	1.56918	0	0
53.95	-0.180309	1.27356	1.86088	0.723662	0.273101	0.926654	0.976624	-0.12489	-0.0541448	1.09988	-0.30012	0	0	0.899754	-0.145417	-0.124242	1.08476	-0.241955	0	0	-0.586001	0.162437	0.0556695	0.934525	-0.431261	1.5708	0.313194	0.0206657	0	0	-0.0322259	-0.110685	-0.226766	0.748937	1.56494	0	0
53.96	-0.185962	1.27693	1.86686	0.723176	0.274007	0.928975	0.966521	-0.1255	-0.0539392	1.09264	-0.299154	0	0	0.887406	-0.14422	-0.128378	1.07379	-0.241428	0	0	-0.58007	0.162782	0.0513456	0.925056	-0.42993	1.5708	0.313232	0.0218189	0	0	-0.0347918	-0.113945	-0.225759	0.748254	1.56069	0	0
53.97	-0.191239	1.27997	1.8721	0.722699	0.274965	0.931299	0.95661	-0.125791	-0.0539838	1.08517	-0.298031	0	0	0.875345	-0.143421	-0.132817	1.06278	-0.241028	0	0	-0.573681	0.16302	0.0472528	0.915578	-0.428653	1.5708	0.313302	0.0241145	0	0	-0.0374133	-0.117138	-0.224107	0.746896	1.55618	0	0
53.98	-0.196373	1.28335	1.87697	0.722217	0.275951	0.933696	0.946217	-0.126022	-0.0546432	1.07756	-0.29706	0	0	0.862806	-0.142773	-0.137333	1.05145	-0.240885	0	0	-0.567444	0.163427	0.0435134	0.90633	-0.42766	1.5708	0.31347	0.0276661	0	0	-0.039813	-0.120255	-0.221514	0.744734	1.55109	0	0
53.99	-0.201624	1.28712	1.88193	0.721713	0.276956	0.93615	0.935049	-0.126454	-0.0557822	1.06924	-0.296279	0	0	0.849956	-0.142285	-0.14183	1.04024	-0.241086	0	0	-0.561309	0.164069	0.0400402	0.897286	-0.426973	1.5708	0.313532	0.0316625	0	0	-0.0419019	-0.12325	-0.218052	0.741774	1.54532	0	0
54	-0.207209	1.29073	1.88687	0.72123	0.277977	0.938592	0.923508	-0.126615	-0.05638	1.05973	-0.295323	0	0	0.837154	-0.141917	-0.146632	1.02905	-0.241451	0	0	-0.554788	0.164495	0.0368186	0.888292	-0.426401	1.5708	0.313713	0.0366889	0	0	-0.0439057	-0.126309	-0.213639	0.738163	1.5392	0	0
54.01	-0.212267	1.29416	1.89077	0.720833	0.279048	0.941038	0.912117	-0.125897	-0.0565101	1.05024	-0.294036	0	0	0.824482	-0.142107	-0.151879	1.01791	-0.242018	0	0	-0.548008	0.16472	0.0340275	0.87944	-0.425758	1.5708	0.313884	0.0424757	0	0	-0.0459306	-0.129587	-0.208182	0.734035	1.53266	0	0
54.02	-0.217639	1.29778	1.89481	0.720451	0.280194	0.943535	0.900571	-0.125209	-0.0569984	1.04114	-0.292919	0	0	0.81154	-0.142467	-0.157512	1.00679	-0.242906	0	0	-0.541395	0.164827	0.0313601	0.870782	-0.425141	1.5708	0.314155	0.0489465	0	0	-0.0480483	-0.133034	-0.201709	0.72985	1.52565	0	0
54.03	-0.224181	1.30192	1.90027	0.720041	0.281381	0.946105	0.888026	-0.12508	-0.0577722	1.03132	-0.292173	0	0	0.797953	-0.142659	-0.163439	0.995603	-0.244166	0	0	-0.535203	0.164948	0.0286285	0.862154	-0.42455	1.5708	0.314261	0.0552677	0	0	-0.0500722	-0.136724	-0.193866	0.725599	1.51814	0	0
54.04	-0.231333	1.30637	1.90636	0.719639	0.282625	0.948699	0.874954	-0.12509	-0.0586904	1.02113	-0.291619	0	0	0.784249	-0.142859	-0.169125	0.98483	-0.245763	0	0	-0.529045	0.164968	0.0259557	0.853373	-0.423707	1.5708	0.313699	0.0610987	0	0	-0.0520445	-0.140724	-0.184648	0.721131	1.51032	0	0
